<svg width="142" height="34" viewBox="0 0 142 34" fill="none" xmlns="http://www.w3.org/2000/svg">
<path d="M17.89 17.7319C17.9025 16.7636 18.1597 15.8142 18.6377 14.972C19.1157 14.1299 19.7989 13.4223 20.6238 12.9151C20.0998 12.1666 19.4084 11.5507 18.6047 11.1161C17.8009 10.6816 16.9069 10.4405 15.9937 10.4119C14.0455 10.2074 12.1569 11.5776 11.1641 11.5776C10.1522 11.5776 8.62379 10.4322 6.97793 10.4661C5.91331 10.5004 4.87574 10.81 3.96633 11.3646C3.05692 11.9192 2.30668 12.6999 1.78871 13.6306C-0.454968 17.5153 1.21862 23.2243 3.36798 26.3643C4.44329 27.9019 5.69994 29.6193 7.34441 29.5584C8.9535 29.4917 9.55444 28.5323 11.4969 28.5323C13.4214 28.5323 13.9852 29.5584 15.6629 29.5197C17.3897 29.4917 18.4775 27.9753 19.5151 26.4232C20.2877 25.3276 20.8822 24.1168 21.2766 22.8355C20.2735 22.4112 19.4174 21.701 18.8152 20.7934C18.2129 19.8859 17.8912 18.8211 17.89 17.7319ZM14.721 8.34676C15.6625 7.21656 16.1263 5.76389 16.014 4.29724C14.5756 4.44831 13.247 5.13574 12.2928 6.22258C11.8263 6.75353 11.4689 7.37122 11.2413 8.04034C11.0136 8.70947 10.9201 9.41691 10.966 10.1222C11.6854 10.1296 12.3972 9.97369 13.0476 9.66615C13.698 9.35861 14.2702 8.90749 14.721 8.34676Z" fill="#0D0D0D"/>
<path d="M40.9133 6.38171H39.4524C39.4107 6.14213 39.3339 5.92989 39.2219 5.74499C39.1099 5.55749 38.9706 5.39864 38.804 5.26843C38.6373 5.13822 38.4472 5.04057 38.2336 4.97546C38.0227 4.90776 37.7948 4.8739 37.55 4.8739C37.1152 4.8739 36.7297 4.98328 36.3938 5.20203C36.0579 5.41817 35.7948 5.73588 35.6047 6.15515C35.4146 6.57182 35.3196 7.08093 35.3196 7.68249C35.3196 8.29447 35.4146 8.8101 35.6047 9.22937C35.7974 9.64604 36.0605 9.96114 36.3938 10.1747C36.7297 10.3856 37.1139 10.4911 37.5461 10.4911C37.7857 10.4911 38.0097 10.4598 38.218 10.3973C38.429 10.3322 38.6178 10.2372 38.7844 10.1122C38.9537 9.98718 39.0956 9.83354 39.2102 9.65125C39.3274 9.46895 39.4081 9.26062 39.4524 9.02625L40.9133 9.03406C40.8586 9.41427 40.7402 9.77104 40.5579 10.1044C40.3782 10.4377 40.1425 10.732 39.8508 10.9872C39.5592 11.2398 39.218 11.4377 38.8274 11.5809C38.4368 11.7216 38.0032 11.7919 37.5266 11.7919C36.8235 11.7919 36.1959 11.6291 35.6438 11.3036C35.0917 10.9781 34.6568 10.508 34.3391 9.89343C34.0214 9.27885 33.8625 8.54187 33.8625 7.68249C33.8625 6.82052 34.0227 6.08354 34.343 5.47156C34.6633 4.85697 35.0995 4.38692 35.6516 4.0614C36.2037 3.73588 36.8287 3.57312 37.5266 3.57312C37.9719 3.57312 38.386 3.63562 38.7688 3.76062C39.1516 3.88562 39.4928 4.06921 39.7922 4.3114C40.0917 4.55098 40.3378 4.84526 40.5305 5.19421C40.7258 5.54057 40.8534 5.9364 40.9133 6.38171ZM44.7952 11.7997C44.2092 11.7997 43.7014 11.6708 43.2717 11.413C42.842 11.1552 42.5087 10.7945 42.2717 10.3309C42.0374 9.86739 41.9202 9.32572 41.9202 8.70593C41.9202 8.08614 42.0374 7.54317 42.2717 7.07703C42.5087 6.61088 42.842 6.2489 43.2717 5.99109C43.7014 5.73328 44.2092 5.60437 44.7952 5.60437C45.3811 5.60437 45.8889 5.73328 46.3186 5.99109C46.7483 6.2489 47.0803 6.61088 47.3147 7.07703C47.5517 7.54317 47.6702 8.08614 47.6702 8.70593C47.6702 9.32572 47.5517 9.86739 47.3147 10.3309C47.0803 10.7945 46.7483 11.1552 46.3186 11.413C45.8889 11.6708 45.3811 11.7997 44.7952 11.7997ZM44.803 10.6669C45.1207 10.6669 45.3863 10.5796 45.5999 10.4052C45.8134 10.2281 45.9722 9.99109 46.0764 9.69421C46.1832 9.39734 46.2366 9.06661 46.2366 8.70203C46.2366 8.33484 46.1832 8.00281 46.0764 7.70593C45.9722 7.40645 45.8134 7.16817 45.5999 6.99109C45.3863 6.81401 45.1207 6.72546 44.803 6.72546C44.4775 6.72546 44.2066 6.81401 43.9905 6.99109C43.7769 7.16817 43.6168 7.40645 43.51 7.70593C43.4058 8.00281 43.3538 8.33484 43.3538 8.70203C43.3538 9.06661 43.4058 9.39734 43.51 9.69421C43.6168 9.99109 43.7769 10.2281 43.9905 10.4052C44.2066 10.5796 44.4775 10.6669 44.803 10.6669ZM48.8704 11.6825V5.68249H50.2219V6.70203H50.2922C50.4172 6.35828 50.6243 6.09005 50.9133 5.89734C51.2024 5.70203 51.5474 5.60437 51.9485 5.60437C52.3547 5.60437 52.6972 5.70333 52.9758 5.90125C53.2571 6.09656 53.455 6.36348 53.5696 6.70203H53.6321C53.7649 6.36869 53.9889 6.10307 54.304 5.90515C54.6217 5.70463 54.998 5.60437 55.4329 5.60437C55.9849 5.60437 56.4355 5.77885 56.7844 6.12781C57.1334 6.47677 57.3079 6.98588 57.3079 7.65515V11.6825H55.8899V7.8739C55.8899 7.50151 55.7909 7.22937 55.593 7.05749C55.3951 6.88302 55.1529 6.79578 54.8665 6.79578C54.5253 6.79578 54.2584 6.90255 54.0657 7.11609C53.8756 7.32703 53.7805 7.60177 53.7805 7.94031V11.6825H52.3938V7.81531C52.3938 7.50541 52.3 7.25802 52.1125 7.07312C51.9277 6.88822 51.6855 6.79578 51.386 6.79578C51.1829 6.79578 50.998 6.84786 50.8313 6.95203C50.6646 7.05359 50.5318 7.19812 50.4329 7.38562C50.3339 7.57052 50.2844 7.78666 50.2844 8.03406V11.6825H48.8704ZM58.7424 11.6825V5.68249H60.1565V11.6825H58.7424ZM59.4534 4.83093C59.2294 4.83093 59.0367 4.75671 58.8752 4.60828C58.7138 4.45723 58.6331 4.27624 58.6331 4.06531C58.6331 3.85177 58.7138 3.67078 58.8752 3.52234C59.0367 3.3713 59.2294 3.29578 59.4534 3.29578C59.6799 3.29578 59.8726 3.3713 60.0315 3.52234C60.193 3.67078 60.2737 3.85177 60.2737 4.06531C60.2737 4.27624 60.193 4.45723 60.0315 4.60828C59.8726 4.75671 59.6799 4.83093 59.4534 4.83093ZM63.0247 8.16687V11.6825H61.6106V5.68249H62.9622V6.70203H63.0325C63.1705 6.36609 63.3905 6.09916 63.6926 5.90125C63.9973 5.70333 64.3736 5.60437 64.8215 5.60437C65.2356 5.60437 65.5963 5.69291 65.9036 5.86999C66.2135 6.04708 66.453 6.30359 66.6223 6.63953C66.7942 6.97546 66.8788 7.38302 66.8762 7.86218V11.6825H65.4622V8.08093C65.4622 7.67989 65.358 7.36609 65.1497 7.13953C64.9439 6.91296 64.6588 6.79968 64.2942 6.79968C64.0468 6.79968 63.8267 6.85437 63.634 6.96375C63.4439 7.07052 63.2942 7.22546 63.1848 7.42859C63.078 7.63171 63.0247 7.87781 63.0247 8.16687ZM70.9231 14.0575C70.4153 14.0575 69.9791 13.9885 69.6145 13.8505C69.2499 13.715 68.9569 13.5328 68.7356 13.3036C68.5142 13.0744 68.3606 12.8205 68.2747 12.5419L69.5481 12.2333C69.6054 12.3505 69.6887 12.4663 69.7981 12.5809C69.9075 12.6981 70.0546 12.7945 70.2395 12.87C70.427 12.9481 70.6627 12.9872 70.9465 12.9872C71.3476 12.9872 71.6796 12.8895 71.9426 12.6942C72.2056 12.5015 72.3372 12.1838 72.3372 11.7411V10.6044H72.2668C72.1939 10.7502 72.0872 10.8999 71.9465 11.0536C71.8085 11.2072 71.6249 11.3361 71.3958 11.4403C71.1692 11.5445 70.884 11.5966 70.5403 11.5966C70.0793 11.5966 69.6614 11.4885 69.2864 11.2723C68.914 11.0536 68.6171 10.7281 68.3958 10.2958C68.177 9.86088 68.0676 9.31661 68.0676 8.66296C68.0676 8.00411 68.177 7.44812 68.3958 6.99499C68.6171 6.53927 68.9153 6.19421 69.2903 5.95984C69.6653 5.72286 70.0833 5.60437 70.5442 5.60437C70.8958 5.60437 71.1848 5.66427 71.4114 5.78406C71.6405 5.90124 71.8228 6.04317 71.9583 6.20984C72.0937 6.3739 72.1965 6.52885 72.2668 6.67468H72.345V5.68249H73.7395V11.7802C73.7395 12.2932 73.6171 12.7177 73.3723 13.0536C73.1275 13.3895 72.7929 13.6408 72.3684 13.8075C71.9439 13.9742 71.4622 14.0575 70.9231 14.0575ZM70.9348 10.4872C71.2343 10.4872 71.4895 10.4143 71.7004 10.2684C71.9114 10.1226 72.0715 9.91296 72.1809 9.63953C72.2903 9.36609 72.345 9.03796 72.345 8.65515C72.345 8.27755 72.2903 7.94682 72.1809 7.66296C72.0741 7.37911 71.9153 7.15906 71.7043 7.00281C71.496 6.84395 71.2395 6.76453 70.9348 6.76453C70.6197 6.76453 70.3567 6.84656 70.1458 7.01062C69.9348 7.17468 69.776 7.39994 69.6692 7.6864C69.5624 7.97026 69.509 8.29317 69.509 8.65515C69.509 9.02234 69.5624 9.34395 69.6692 9.62C69.7786 9.89343 69.9387 10.107 70.1497 10.2606C70.3632 10.4117 70.6249 10.4872 70.9348 10.4872ZM82.3274 5.88171C82.2909 5.54057 82.1373 5.27494 81.8665 5.08484C81.5982 4.89473 81.2493 4.79968 80.8196 4.79968C80.5175 4.79968 80.2584 4.84526 80.0422 4.9364C79.8261 5.02755 79.6607 5.15124 79.5461 5.30749C79.4316 5.46375 79.373 5.64213 79.3704 5.84265C79.3704 6.00932 79.4081 6.15385 79.4836 6.27625C79.5618 6.39864 79.6672 6.50281 79.8 6.58875C79.9329 6.67208 80.08 6.74239 80.2415 6.79968C80.4029 6.85697 80.5657 6.90515 80.7297 6.94421L81.4797 7.13171C81.7818 7.20203 82.0722 7.29708 82.3508 7.41687C82.6321 7.53666 82.8834 7.6877 83.1047 7.87C83.3287 8.05229 83.5058 8.27234 83.636 8.53015C83.7662 8.78796 83.8313 9.09005 83.8313 9.4364C83.8313 9.90515 83.7115 10.3179 83.4719 10.6747C83.2323 11.0288 82.886 11.3062 82.4329 11.5067C81.9823 11.7046 81.4368 11.8036 80.7961 11.8036C80.1737 11.8036 79.6334 11.7072 79.175 11.5145C78.7193 11.3218 78.3625 11.0406 78.1047 10.6708C77.8495 10.301 77.7115 9.85046 77.6907 9.31921H79.1165C79.1373 9.59786 79.2232 9.82963 79.3743 10.0145C79.5253 10.1994 79.7219 10.3374 79.9641 10.4286C80.2089 10.5197 80.4823 10.5653 80.7844 10.5653C81.0995 10.5653 81.3756 10.5184 81.6125 10.4247C81.8521 10.3283 82.0396 10.1955 82.175 10.0262C82.3105 9.85437 82.3795 9.65385 82.3821 9.42468C82.3795 9.21635 82.3183 9.04447 82.1985 8.90906C82.0787 8.77104 81.9107 8.65645 81.6946 8.56531C81.481 8.47156 81.231 8.38822 80.9446 8.31531L80.0344 8.08093C79.3756 7.91166 78.8547 7.65515 78.4719 7.3114C78.0917 6.96505 77.9016 6.50541 77.9016 5.93249C77.9016 5.46114 78.0292 5.04838 78.2844 4.69421C78.5422 4.34005 78.8925 4.06531 79.3352 3.86999C79.7779 3.67208 80.2792 3.57312 80.8391 3.57312C81.4068 3.57312 81.9042 3.67208 82.3313 3.86999C82.761 4.06531 83.0982 4.33744 83.343 4.6864C83.5878 5.03276 83.7141 5.43119 83.7219 5.88171H82.3274ZM87.678 11.7997C87.092 11.7997 86.5842 11.6708 86.1545 11.413C85.7249 11.1552 85.3915 10.7945 85.1545 10.3309C84.9202 9.86739 84.803 9.32572 84.803 8.70593C84.803 8.08614 84.9202 7.54317 85.1545 7.07703C85.3915 6.61088 85.7249 6.2489 86.1545 5.99109C86.5842 5.73328 87.092 5.60437 87.678 5.60437C88.2639 5.60437 88.7717 5.73328 89.2014 5.99109C89.6311 6.2489 89.9631 6.61088 90.1975 7.07703C90.4345 7.54317 90.553 8.08614 90.553 8.70593C90.553 9.32572 90.4345 9.86739 90.1975 10.3309C89.9631 10.7945 89.6311 11.1552 89.2014 11.413C88.7717 11.6708 88.2639 11.7997 87.678 11.7997ZM87.6858 10.6669C88.0035 10.6669 88.2691 10.5796 88.4827 10.4052C88.6962 10.2281 88.8551 9.99109 88.9592 9.69421C89.066 9.39734 89.1194 9.06661 89.1194 8.70203C89.1194 8.33484 89.066 8.00281 88.9592 7.70593C88.8551 7.40645 88.6962 7.16817 88.4827 6.99109C88.2691 6.81401 88.0035 6.72546 87.6858 6.72546C87.3603 6.72546 87.0894 6.81401 86.8733 6.99109C86.6597 7.16817 86.4996 7.40645 86.3928 7.70593C86.2887 8.00281 86.2366 8.33484 86.2366 8.70203C86.2366 9.06661 86.2887 9.39734 86.3928 9.69421C86.4996 9.99109 86.6597 10.2281 86.8733 10.4052C87.0894 10.5796 87.3603 10.6669 87.6858 10.6669ZM94.3704 11.7997C93.7844 11.7997 93.2766 11.6708 92.8469 11.413C92.4172 11.1552 92.0839 10.7945 91.8469 10.3309C91.6125 9.86739 91.4954 9.32572 91.4954 8.70593C91.4954 8.08614 91.6125 7.54317 91.8469 7.07703C92.0839 6.61088 92.4172 6.2489 92.8469 5.99109C93.2766 5.73328 93.7844 5.60437 94.3704 5.60437C94.9563 5.60437 95.4641 5.73328 95.8938 5.99109C96.3235 6.2489 96.6555 6.61088 96.8899 7.07703C97.1269 7.54317 97.2454 8.08614 97.2454 8.70593C97.2454 9.32572 97.1269 9.86739 96.8899 10.3309C96.6555 10.7945 96.3235 11.1552 95.8938 11.413C95.4641 11.6708 94.9563 11.7997 94.3704 11.7997ZM94.3782 10.6669C94.6959 10.6669 94.9615 10.5796 95.175 10.4052C95.3886 10.2281 95.5474 9.99109 95.6516 9.69421C95.7584 9.39734 95.8118 9.06661 95.8118 8.70203C95.8118 8.33484 95.7584 8.00281 95.6516 7.70593C95.5474 7.40645 95.3886 7.16817 95.175 6.99109C94.9615 6.81401 94.6959 6.72546 94.3782 6.72546C94.0527 6.72546 93.7818 6.81401 93.5657 6.99109C93.3521 7.16817 93.192 7.40645 93.0852 7.70593C92.981 8.00281 92.929 8.33484 92.929 8.70203C92.929 9.06661 92.981 9.39734 93.0852 9.69421C93.192 9.99109 93.3521 10.2281 93.5657 10.4052C93.7818 10.5796 94.0527 10.6669 94.3782 10.6669ZM99.8596 8.16687V11.6825H98.4456V5.68249H99.7971V6.70203H99.8674C100.005 6.36609 100.226 6.09916 100.528 5.90125C100.832 5.70333 101.209 5.60437 101.656 5.60437C102.071 5.60437 102.431 5.69291 102.739 5.86999C103.048 6.04708 103.288 6.30359 103.457 6.63953C103.629 6.97546 103.714 7.38302 103.711 7.86218V11.6825H102.297V8.08093C102.297 7.67989 102.193 7.36609 101.985 7.13953C101.779 6.91296 101.494 6.79968 101.129 6.79968C100.882 6.79968 100.662 6.85437 100.469 6.96375C100.279 7.07052 100.129 7.22546 100.02 7.42859C99.913 7.63171 99.8596 7.87781 99.8596 8.16687ZM110.494 11.7997C109.908 11.7997 109.401 11.6708 108.971 11.413C108.541 11.1552 108.208 10.7945 107.971 10.3309C107.737 9.86739 107.619 9.32572 107.619 8.70593C107.619 8.08614 107.737 7.54317 107.971 7.07703C108.208 6.61088 108.541 6.2489 108.971 5.99109C109.401 5.73328 109.908 5.60437 110.494 5.60437C111.08 5.60437 111.588 5.73328 112.018 5.99109C112.448 6.2489 112.78 6.61088 113.014 7.07703C113.251 7.54317 113.369 8.08614 113.369 8.70593C113.369 9.32572 113.251 9.86739 113.014 10.3309C112.78 10.7945 112.448 11.1552 112.018 11.413C111.588 11.6708 111.08 11.7997 110.494 11.7997ZM110.502 10.6669C110.82 10.6669 111.086 10.5796 111.299 10.4052C111.513 10.2281 111.671 9.99109 111.776 9.69421C111.882 9.39734 111.936 9.06661 111.936 8.70203C111.936 8.33484 111.882 8.00281 111.776 7.70593C111.671 7.40645 111.513 7.16817 111.299 6.99109C111.086 6.81401 110.82 6.72546 110.502 6.72546C110.177 6.72546 109.906 6.81401 109.69 6.99109C109.476 7.16817 109.316 7.40645 109.209 7.70593C109.105 8.00281 109.053 8.33484 109.053 8.70203C109.053 9.06661 109.105 9.39734 109.209 9.69421C109.316 9.99109 109.476 10.2281 109.69 10.4052C109.906 10.5796 110.177 10.6669 110.502 10.6669ZM115.984 8.16687V11.6825H114.57V5.68249H115.921V6.70203H115.991C116.129 6.36609 116.35 6.09916 116.652 5.90125C116.956 5.70333 117.333 5.60437 117.781 5.60437C118.195 5.60437 118.555 5.69291 118.863 5.86999C119.172 6.04708 119.412 6.30359 119.581 6.63953C119.753 6.97546 119.838 7.38302 119.835 7.86218V11.6825H118.421V8.08093C118.421 7.67989 118.317 7.36609 118.109 7.13953C117.903 6.91296 117.618 6.79968 117.253 6.79968C117.006 6.79968 116.786 6.85437 116.593 6.96375C116.403 7.07052 116.253 7.22546 116.144 7.42859C116.037 7.63171 115.984 7.87781 115.984 8.16687ZM126.997 5.68249V6.77624H123.548V5.68249H126.997ZM124.4 4.24499H125.814V9.87781C125.814 10.0679 125.842 10.2137 125.9 10.3153C125.96 10.4143 126.038 10.482 126.134 10.5184C126.23 10.5549 126.337 10.5731 126.454 10.5731C126.543 10.5731 126.624 10.5666 126.697 10.5536C126.772 10.5406 126.829 10.5288 126.868 10.5184L127.107 11.6239C127.031 11.6499 126.923 11.6786 126.782 11.7098C126.644 11.7411 126.475 11.7593 126.275 11.7645C125.92 11.7749 125.601 11.7216 125.318 11.6044C125.034 11.4846 124.809 11.2997 124.642 11.0497C124.478 10.7997 124.397 10.4872 124.4 10.1122V4.24499ZM129.723 8.16687V11.6825H128.309V3.68249H129.692V6.70203H129.762C129.903 6.36348 130.12 6.09656 130.414 5.90125C130.711 5.70333 131.089 5.60437 131.547 5.60437C131.964 5.60437 132.327 5.69161 132.637 5.86609C132.947 6.04057 133.186 6.29578 133.356 6.63171C133.528 6.96765 133.614 7.37781 133.614 7.86218V11.6825H132.199V8.08093C132.199 7.67729 132.095 7.36348 131.887 7.13953C131.681 6.91296 131.392 6.79968 131.02 6.79968C130.77 6.79968 130.546 6.85437 130.348 6.96375C130.153 7.07052 129.999 7.22546 129.887 7.42859C129.778 7.63171 129.723 7.87781 129.723 8.16687ZM137.711 11.7997C137.11 11.7997 136.59 11.6747 136.153 11.4247C135.718 11.1721 135.383 10.8153 135.149 10.3544C134.914 9.89083 134.797 9.34526 134.797 8.71765C134.797 8.10046 134.914 7.5588 135.149 7.09265C135.386 6.6239 135.716 6.25932 136.141 5.9989C136.565 5.73588 137.064 5.60437 137.637 5.60437C138.007 5.60437 138.356 5.66427 138.684 5.78406C139.015 5.90124 139.306 6.08354 139.559 6.33093C139.814 6.57833 140.015 6.89343 140.16 7.27625C140.306 7.65645 140.379 8.10958 140.379 8.63562V9.06921H135.461V8.11609H139.024C139.021 7.84526 138.962 7.60437 138.848 7.39343C138.733 7.17989 138.573 7.01192 138.367 6.88953C138.164 6.76713 137.927 6.70593 137.656 6.70593C137.367 6.70593 137.114 6.77624 136.895 6.91687C136.676 7.05489 136.505 7.23718 136.383 7.46374C136.263 7.6877 136.202 7.9338 136.199 8.20203V9.03406C136.199 9.38302 136.263 9.6825 136.391 9.9325C136.518 10.1799 136.697 10.37 136.926 10.5028C137.155 10.633 137.423 10.6981 137.731 10.6981C137.936 10.6981 138.123 10.6695 138.289 10.6122C138.456 10.5523 138.601 10.465 138.723 10.3505C138.845 10.2359 138.938 10.094 139 9.92468L140.321 10.0731C140.237 10.4221 140.078 10.7268 139.844 10.9872C139.612 11.245 139.315 11.4455 138.953 11.5887C138.591 11.7294 138.177 11.7997 137.711 11.7997Z" fill="#0D0D0D"/>
<path d="M42.2777 25.915H36.8675L35.5683 29.7513H33.2766L38.4012 15.5578H40.782L45.9065 29.7513H43.5758L42.2777 25.915ZM37.4278 24.1447H41.7163L39.6022 17.9186H39.543L37.4278 24.1447ZM56.9735 24.5778C56.9735 27.7935 55.2523 29.8596 52.655 29.8596C51.997 29.894 51.3426 29.7424 50.7668 29.4223C50.1909 29.1021 49.7169 28.6262 49.399 28.0491H49.3498V33.1747H47.2257V19.4031H49.2818V21.1243H49.3209C49.6535 20.55 50.1355 20.0766 50.7157 19.7544C51.2959 19.4323 51.9526 19.2735 52.6159 19.2949C55.2422 19.2949 56.9735 21.3711 56.9735 24.5778ZM54.7902 24.5778C54.7902 22.4828 53.7076 21.1054 52.0556 21.1054C50.4326 21.1054 49.341 22.5117 49.341 24.5777C49.341 26.6629 50.4326 28.0593 52.0556 28.0593C53.7076 28.0593 54.7902 26.692 54.7902 24.5778ZM68.3631 24.5778C68.3631 27.7935 66.642 29.8596 64.0446 29.8596C63.3866 29.894 62.7323 29.7424 62.1565 29.4222C61.5806 29.102 61.1066 28.6262 60.7887 28.0491H60.7395V33.1747H58.6154V19.4031H60.6714V21.1243H60.7105C61.0431 20.55 61.5251 20.0766 62.1053 19.7544C62.6855 19.4323 63.3422 19.2735 64.0055 19.2949C66.632 19.2949 68.3631 21.3711 68.3631 24.5778ZM66.1799 24.5778C66.1799 22.4828 65.0972 21.1054 63.4452 21.1054C61.8222 21.1054 60.7306 22.5117 60.7306 24.5777C60.7306 26.6629 61.8222 28.0593 63.4452 28.0593C65.0972 28.0593 66.1799 26.692 66.1799 24.5778ZM75.8908 25.7967C76.0482 27.2042 77.4156 28.1284 79.284 28.1284C81.0744 28.1284 82.3625 27.2042 82.3625 25.935C82.3625 24.8333 81.5856 24.1737 79.7462 23.7216L77.9066 23.2785C75.3003 22.6489 74.0904 21.4301 74.0904 19.4521C74.0904 17.0032 76.2246 15.3212 79.255 15.3212C82.2541 15.3212 84.3102 17.0032 84.3794 19.4521H82.2352C82.1068 18.0358 80.9359 17.1807 79.2248 17.1807C77.5137 17.1807 76.3429 18.0458 76.3429 19.3048C76.3429 20.3083 77.0907 20.8988 78.9201 21.3507L80.4839 21.7348C83.396 22.4234 84.6061 23.5933 84.6061 25.6693C84.6061 28.3248 82.4908 29.9879 79.1266 29.9879C75.9788 29.9879 73.8537 28.3638 73.7164 25.7966L75.8908 25.7967ZM89.1902 16.9543V19.4031H91.1581V21.0852H89.1902V26.7901C89.1902 27.6764 89.5842 28.0893 90.4493 28.0893C90.6829 28.0852 90.9162 28.0688 91.148 28.0402V29.7124C90.7591 29.785 90.3638 29.8178 89.9683 29.8104C87.8732 29.8104 87.056 29.0236 87.056 27.0166V21.0852H85.5514V19.4031H87.056V16.9543H89.1902ZM92.2978 24.5778C92.2978 21.3218 94.2154 19.2759 97.2057 19.2759C100.206 19.2759 102.115 21.3218 102.115 24.5778C102.115 27.8427 100.216 29.8797 97.2056 29.8797C94.1964 29.8797 92.2978 27.8427 92.2978 24.5778ZM99.9504 24.5778C99.9504 22.3443 98.9268 21.026 97.2056 21.026C95.4845 21.026 94.462 22.3543 94.462 24.5778C94.462 26.8203 95.4845 28.1284 97.2056 28.1284C98.9268 28.1284 99.9504 26.8203 99.9504 24.5778ZM103.866 19.4031H105.892V21.1644H105.941C106.078 20.6143 106.4 20.1282 106.854 19.7877C107.307 19.4472 107.864 19.2732 108.43 19.2949C108.675 19.294 108.919 19.3206 109.158 19.3741V21.3609C108.849 21.2665 108.527 21.2231 108.204 21.2326C107.895 21.22 107.587 21.2744 107.302 21.392C107.016 21.5096 106.759 21.6876 106.549 21.9138C106.339 22.14 106.18 22.409 106.084 22.7024C105.987 22.9958 105.955 23.3065 105.99 23.6134V29.7513H103.866V19.4031ZM118.951 26.7119C118.666 28.5905 116.836 29.8797 114.496 29.8797C111.485 29.8797 109.617 27.8628 109.617 24.6269C109.617 21.381 111.495 19.2759 114.406 19.2759C117.269 19.2759 119.07 21.2426 119.07 24.3802V25.108H111.761V25.2363C111.727 25.6172 111.775 26.0008 111.901 26.3618C112.027 26.7228 112.228 27.0529 112.491 27.3301C112.754 27.6074 113.074 27.8254 113.428 27.9698C113.782 28.1142 114.162 28.1816 114.545 28.1675C115.047 28.2146 115.55 28.0983 115.981 27.836C116.411 27.5738 116.746 27.1795 116.934 26.7119H118.951ZM111.771 23.6235H116.944C116.963 23.281 116.912 22.9383 116.792 22.6169C116.672 22.2955 116.487 22.0023 116.249 21.7556C116.011 21.509 115.724 21.3143 115.407 21.1838C115.09 21.0532 114.749 20.9896 114.406 20.997C114.06 20.9949 113.717 21.0614 113.397 21.1926C113.077 21.3237 112.786 21.517 112.541 21.7611C112.296 22.0053 112.102 22.2956 111.97 22.6153C111.838 22.9349 111.77 23.2775 111.771 23.6235Z" fill="#0D0D0D"/>
</svg>
