<svg width="128" height="34" viewBox="0 0 128 34" fill="none" xmlns="http://www.w3.org/2000/svg">
<path d="M0.457502 5.50256C0.183681 5.77639 0.0924072 6.23275 0.0924072 6.7804V26.9519C0.0924072 27.4996 0.274955 27.9559 0.548776 28.2298L0.640051 28.321L11.958 17.0031V16.8205L0.457502 5.50256Z" fill="#0D0D0D"/>
<path d="M15.6089 20.8374L11.8667 17.0952V16.8213L15.6089 13.0791L15.7002 13.1704L20.1726 15.726C21.4505 16.4562 21.4505 17.6428 20.1726 18.373L15.6089 20.8374Z" fill="#615F5F"/>
<path d="M15.7003 20.746L11.8668 16.9125L0.45752 28.3217C0.913889 28.7781 1.55281 28.7781 2.37427 28.413L15.7003 20.746Z" fill="#4B4B4B"/>
<path d="M15.7003 13.0786L2.37427 5.50283C1.55281 5.04646 0.913889 5.13773 0.45752 5.5941L11.8668 16.9121L15.7003 13.0786Z" fill="#4B4B4B"/>
<path opacity="0.25" d="M2.37425 5.59417L20.1727 15.7256C20.7203 16.0907 21.0854 16.4558 21.0854 16.9121C21.0854 16.4558 20.8116 15.9994 20.1727 15.6343L2.37425 5.5029C1.09642 4.77271 0.0924072 5.32035 0.0924072 6.78073V6.87201C0.0924072 5.5029 1.09642 4.86398 2.37425 5.59417Z" fill="white"/>
<path d="M40.7677 5.87326H39.3068C39.2651 5.63368 39.1883 5.42144 39.0763 5.23654C38.9643 5.04904 38.825 4.89019 38.6583 4.75998C38.4917 4.62977 38.3016 4.53211 38.088 4.46701C37.8771 4.3993 37.6492 4.36545 37.4044 4.36545C36.9695 4.36545 36.5841 4.47482 36.2482 4.69357C35.9122 4.90972 35.6492 5.22743 35.4591 5.6467C35.269 6.06336 35.174 6.57248 35.174 7.17404C35.174 7.78602 35.269 8.30165 35.4591 8.72092C35.6518 9.13758 35.9148 9.45269 36.2482 9.66623C36.5841 9.87717 36.9682 9.98264 37.4005 9.98264C37.6401 9.98264 37.8641 9.95139 38.0724 9.88889C38.2833 9.82378 38.4721 9.72873 38.6388 9.60373C38.8081 9.47873 38.95 9.32508 39.0646 9.14279C39.1818 8.9605 39.2625 8.75217 39.3068 8.51779L40.7677 8.5256C40.713 8.90581 40.5945 9.26258 40.4122 9.59592C40.2325 9.92925 39.9969 10.2235 39.7052 10.4787C39.4135 10.7313 39.0724 10.9293 38.6818 11.0725C38.2911 11.2131 37.8575 11.2834 37.381 11.2834C36.6779 11.2834 36.0503 11.1207 35.4982 10.7951C34.9461 10.4696 34.5112 9.99956 34.1935 9.38498C33.8758 8.7704 33.7169 8.03342 33.7169 7.17404C33.7169 6.31206 33.8771 5.57508 34.1974 4.9631C34.5177 4.34852 34.9539 3.87847 35.506 3.55295C36.0581 3.22743 36.6831 3.06467 37.381 3.06467C37.8263 3.06467 38.2404 3.12717 38.6232 3.25217C39.006 3.37717 39.3471 3.56076 39.6466 3.80295C39.9461 4.04253 40.1922 4.3368 40.3849 4.68576C40.5802 5.03211 40.7078 5.42795 40.7677 5.87326ZM44.6495 11.2912C44.0636 11.2912 43.5558 11.1623 43.1261 10.9045C42.6964 10.6467 42.3631 10.286 42.1261 9.82248C41.8917 9.35894 41.7745 8.81727 41.7745 8.19748C41.7745 7.57769 41.8917 7.03472 42.1261 6.56857C42.3631 6.10243 42.6964 5.74045 43.1261 5.48264C43.5558 5.22482 44.0636 5.09592 44.6495 5.09592C45.2355 5.09592 45.7433 5.22482 46.173 5.48264C46.6027 5.74045 46.9347 6.10243 47.1691 6.56857C47.406 7.03472 47.5245 7.57769 47.5245 8.19748C47.5245 8.81727 47.406 9.35894 47.1691 9.82248C46.9347 10.286 46.6027 10.6467 46.173 10.9045C45.7433 11.1623 45.2355 11.2912 44.6495 11.2912ZM44.6573 10.1584C44.9751 10.1584 45.2407 10.0712 45.4542 9.8967C45.6678 9.71961 45.8266 9.48264 45.9308 9.18576C46.0376 8.88889 46.0909 8.55816 46.0909 8.19357C46.0909 7.82639 46.0376 7.49435 45.9308 7.19748C45.8266 6.898 45.6678 6.65972 45.4542 6.48264C45.2407 6.30555 44.9751 6.21701 44.6573 6.21701C44.3318 6.21701 44.061 6.30555 43.8448 6.48264C43.6313 6.65972 43.4712 6.898 43.3644 7.19748C43.2602 7.49435 43.2081 7.82639 43.2081 8.19357C43.2081 8.55816 43.2602 8.88889 43.3644 9.18576C43.4712 9.48264 43.6313 9.71961 43.8448 9.8967C44.061 10.0712 44.3318 10.1584 44.6573 10.1584ZM48.7247 11.174V5.17404H50.0763V6.19357H50.1466C50.2716 5.84982 50.4786 5.58159 50.7677 5.38889C51.0568 5.19357 51.4018 5.09592 51.8029 5.09592C52.2091 5.09592 52.5516 5.19488 52.8302 5.39279C53.1115 5.5881 53.3094 5.85503 53.424 6.19357H53.4865C53.6193 5.86024 53.8432 5.59461 54.1583 5.3967C54.476 5.19618 54.8523 5.09592 55.2872 5.09592C55.8393 5.09592 56.2898 5.2704 56.6388 5.61935C56.9878 5.96831 57.1622 6.47743 57.1622 7.1467V11.174H55.7443V7.36545C55.7443 6.99305 55.6453 6.72092 55.4474 6.54904C55.2495 6.37456 55.0073 6.28732 54.7208 6.28732C54.3797 6.28732 54.1128 6.39409 53.92 6.60764C53.7299 6.81857 53.6349 7.09331 53.6349 7.43185V11.174H52.2482V7.30685C52.2482 6.99696 52.1544 6.74956 51.9669 6.56467C51.782 6.37977 51.5398 6.28732 51.2404 6.28732C51.0372 6.28732 50.8523 6.33941 50.6857 6.44357C50.519 6.54514 50.3862 6.68967 50.2872 6.87717C50.1883 7.06206 50.1388 7.27821 50.1388 7.5256V11.174H48.7247ZM58.5968 11.174V5.17404H60.0109V11.174H58.5968ZM59.3077 4.32248C59.0838 4.32248 58.8911 4.24826 58.7296 4.09982C58.5682 3.94878 58.4874 3.76779 58.4874 3.55685C58.4874 3.34331 58.5682 3.16232 58.7296 3.01388C58.8911 2.86284 59.0838 2.78732 59.3077 2.78732C59.5343 2.78732 59.727 2.86284 59.8859 3.01388C60.0473 3.16232 60.1281 3.34331 60.1281 3.55685C60.1281 3.76779 60.0473 3.94878 59.8859 4.09982C59.727 4.24826 59.5343 4.32248 59.3077 4.32248ZM62.879 7.65842V11.174H61.465V5.17404H62.8165V6.19357H62.8868C63.0249 5.85764 63.2449 5.59071 63.547 5.39279C63.8517 5.19488 64.228 5.09592 64.6759 5.09592C65.09 5.09592 65.4506 5.18446 65.7579 5.36154C66.0678 5.53862 66.3074 5.79514 66.4767 6.13107C66.6486 6.46701 66.7332 6.87456 66.7306 7.35373V11.174H65.3165V7.57248C65.3165 7.17144 65.2124 6.85764 65.004 6.63107C64.7983 6.40451 64.5131 6.29123 64.1486 6.29123C63.9012 6.29123 63.6811 6.34592 63.4884 6.45529C63.2983 6.56206 63.1486 6.71701 63.0392 6.92014C62.9324 7.12326 62.879 7.36935 62.879 7.65842ZM70.7775 13.549C70.2697 13.549 69.8335 13.48 69.4689 13.342C69.1043 13.2066 68.8113 13.0243 68.59 12.7951C68.3686 12.566 68.215 12.3121 68.129 12.0334L69.4025 11.7248C69.4598 11.842 69.5431 11.9579 69.6525 12.0725C69.7618 12.1897 69.909 12.286 70.0939 12.3615C70.2814 12.4397 70.517 12.4787 70.8009 12.4787C71.2019 12.4787 71.534 12.3811 71.797 12.1858C72.06 11.9931 72.1915 11.6753 72.1915 11.2326V10.0959H72.1212C72.0483 10.2418 71.9415 10.3915 71.8009 10.5451C71.6629 10.6988 71.4793 10.8277 71.2501 10.9319C71.0236 11.036 70.7384 11.0881 70.3947 11.0881C69.9337 11.0881 69.5157 10.98 69.1407 10.7639C68.7684 10.5451 68.4715 10.2196 68.2501 9.78732C68.0314 9.35243 67.922 8.80816 67.922 8.15451C67.922 7.49566 68.0314 6.93967 68.2501 6.48654C68.4715 6.03081 68.7697 5.68576 69.1447 5.45139C69.5197 5.21441 69.9376 5.09592 70.3986 5.09592C70.7501 5.09592 71.0392 5.15581 71.2657 5.2756C71.4949 5.39279 71.6772 5.53472 71.8126 5.70139C71.948 5.86545 72.0509 6.0204 72.1212 6.16623H72.1993V5.17404H73.5939V11.2717C73.5939 11.7847 73.4715 12.2092 73.2267 12.5451C72.9819 12.8811 72.6473 13.1324 72.2228 13.299C71.7983 13.4657 71.3165 13.549 70.7775 13.549ZM70.7892 9.97873C71.0887 9.97873 71.3439 9.90581 71.5548 9.75998C71.7657 9.61415 71.9259 9.40451 72.0353 9.13107C72.1447 8.85764 72.1993 8.52951 72.1993 8.1467C72.1993 7.76909 72.1447 7.43836 72.0353 7.15451C71.9285 6.87066 71.7697 6.6506 71.5587 6.49435C71.3504 6.3355 71.0939 6.25607 70.7892 6.25607C70.4741 6.25607 70.2111 6.3381 70.0001 6.50217C69.7892 6.66623 69.6303 6.89149 69.5236 7.17795C69.4168 7.4618 69.3634 7.78472 69.3634 8.1467C69.3634 8.51389 69.4168 8.8355 69.5236 9.11154C69.6329 9.38498 69.7931 9.59852 70.004 9.75217C70.2176 9.90321 70.4793 9.97873 70.7892 9.97873ZM82.1818 5.37326C82.1453 5.03211 81.9917 4.76649 81.7208 4.57639C81.4526 4.38628 81.1036 4.29123 80.674 4.29123C80.3719 4.29123 80.1128 4.3368 79.8966 4.42795C79.6805 4.51909 79.5151 4.64279 79.4005 4.79904C79.2859 4.95529 79.2273 5.13368 79.2247 5.3342C79.2247 5.50086 79.2625 5.6454 79.338 5.76779C79.4161 5.89019 79.5216 5.99435 79.6544 6.08029C79.7872 6.16362 79.9344 6.23394 80.0958 6.29123C80.2573 6.34852 80.42 6.3967 80.5841 6.43576L81.3341 6.62326C81.6362 6.69357 81.9266 6.78862 82.2052 6.90842C82.4865 7.02821 82.7378 7.17925 82.9591 7.36154C83.1831 7.54383 83.3601 7.76389 83.4904 8.0217C83.6206 8.27951 83.6857 8.58159 83.6857 8.92795C83.6857 9.3967 83.5659 9.80946 83.3263 10.1662C83.0867 10.5204 82.7404 10.7977 82.2872 10.9983C81.8367 11.1962 81.2911 11.2951 80.6505 11.2951C80.0281 11.2951 79.4878 11.1988 79.0294 11.0061C78.5737 10.8134 78.2169 10.5321 77.9591 10.1623C77.7039 9.79253 77.5659 9.34201 77.545 8.81076H78.9708C78.9917 9.08941 79.0776 9.32118 79.2286 9.50607C79.3797 9.69097 79.5763 9.82899 79.8185 9.92014C80.0633 10.0113 80.3367 10.0569 80.6388 10.0569C80.9539 10.0569 81.2299 10.01 81.4669 9.91623C81.7065 9.81988 81.894 9.68706 82.0294 9.51779C82.1648 9.34592 82.2338 9.1454 82.2365 8.91623C82.2338 8.7079 82.1726 8.53602 82.0529 8.4006C81.9331 8.26258 81.7651 8.148 81.549 8.05685C81.3354 7.9631 81.0854 7.87977 80.799 7.80685L79.8888 7.57248C79.2299 7.40321 78.7091 7.1467 78.3263 6.80295C77.9461 6.45659 77.756 5.99696 77.756 5.42404C77.756 4.95269 77.8836 4.53993 78.1388 4.18576C78.3966 3.83159 78.7469 3.55685 79.1896 3.36154C79.6323 3.16362 80.1336 3.06467 80.6935 3.06467C81.2612 3.06467 81.7586 3.16362 82.1857 3.36154C82.6154 3.55685 82.9526 3.82899 83.1974 4.17795C83.4422 4.5243 83.5685 4.92274 83.5763 5.37326H82.1818ZM87.5323 11.2912C86.9464 11.2912 86.4386 11.1623 86.0089 10.9045C85.5792 10.6467 85.2459 10.286 85.0089 9.82248C84.7745 9.35894 84.6573 8.81727 84.6573 8.19748C84.6573 7.57769 84.7745 7.03472 85.0089 6.56857C85.2459 6.10243 85.5792 5.74045 86.0089 5.48264C86.4386 5.22482 86.9464 5.09592 87.5323 5.09592C88.1183 5.09592 88.6261 5.22482 89.0558 5.48264C89.4855 5.74045 89.8175 6.10243 90.0519 6.56857C90.2889 7.03472 90.4073 7.57769 90.4073 8.19748C90.4073 8.81727 90.2889 9.35894 90.0519 9.82248C89.8175 10.286 89.4855 10.6467 89.0558 10.9045C88.6261 11.1623 88.1183 11.2912 87.5323 11.2912ZM87.5402 10.1584C87.8579 10.1584 88.1235 10.0712 88.337 9.8967C88.5506 9.71961 88.7094 9.48264 88.8136 9.18576C88.9204 8.88889 88.9738 8.55816 88.9738 8.19357C88.9738 7.82639 88.9204 7.49435 88.8136 7.19748C88.7094 6.898 88.5506 6.65972 88.337 6.48264C88.1235 6.30555 87.8579 6.21701 87.5402 6.21701C87.2146 6.21701 86.9438 6.30555 86.7277 6.48264C86.5141 6.65972 86.354 6.898 86.2472 7.19748C86.143 7.49435 86.0909 7.82639 86.0909 8.19357C86.0909 8.55816 86.143 8.88889 86.2472 9.18576C86.354 9.48264 86.5141 9.71961 86.7277 9.8967C86.9438 10.0712 87.2146 10.1584 87.5402 10.1584ZM94.2247 11.2912C93.6388 11.2912 93.131 11.1623 92.7013 10.9045C92.2716 10.6467 91.9383 10.286 91.7013 9.82248C91.4669 9.35894 91.3497 8.81727 91.3497 8.19748C91.3497 7.57769 91.4669 7.03472 91.7013 6.56857C91.9383 6.10243 92.2716 5.74045 92.7013 5.48264C93.131 5.22482 93.6388 5.09592 94.2247 5.09592C94.8107 5.09592 95.3185 5.22482 95.7482 5.48264C96.1779 5.74045 96.5099 6.10243 96.7443 6.56857C96.9812 7.03472 97.0997 7.57769 97.0997 8.19748C97.0997 8.81727 96.9812 9.35894 96.7443 9.82248C96.5099 10.286 96.1779 10.6467 95.7482 10.9045C95.3185 11.1623 94.8107 11.2912 94.2247 11.2912ZM94.2325 10.1584C94.5503 10.1584 94.8159 10.0712 95.0294 9.8967C95.243 9.71961 95.4018 9.48264 95.506 9.18576C95.6128 8.88889 95.6661 8.55816 95.6661 8.19357C95.6661 7.82639 95.6128 7.49435 95.506 7.19748C95.4018 6.898 95.243 6.65972 95.0294 6.48264C94.8159 6.30555 94.5503 6.21701 94.2325 6.21701C93.907 6.21701 93.6362 6.30555 93.42 6.48264C93.2065 6.65972 93.0463 6.898 92.9396 7.19748C92.8354 7.49435 92.7833 7.82639 92.7833 8.19357C92.7833 8.55816 92.8354 8.88889 92.9396 9.18576C93.0463 9.48264 93.2065 9.71961 93.42 9.8967C93.6362 10.0712 93.907 10.1584 94.2325 10.1584ZM99.714 7.65842V11.174H98.2999V5.17404H99.6515V6.19357H99.7218C99.8598 5.85764 100.08 5.59071 100.382 5.39279C100.687 5.19488 101.063 5.09592 101.511 5.09592C101.925 5.09592 102.286 5.18446 102.593 5.36154C102.903 5.53862 103.142 5.79514 103.312 6.13107C103.484 6.46701 103.568 6.87456 103.566 7.35373V11.174H102.151V7.57248C102.151 7.17144 102.047 6.85764 101.839 6.63107C101.633 6.40451 101.348 6.29123 100.984 6.29123C100.736 6.29123 100.516 6.34592 100.323 6.45529C100.133 6.56206 99.9835 6.71701 99.8741 6.92014C99.7674 7.12326 99.714 7.36935 99.714 7.65842ZM110.349 11.2912C109.763 11.2912 109.255 11.1623 108.825 10.9045C108.396 10.6467 108.062 10.286 107.825 9.82248C107.591 9.35894 107.474 8.81727 107.474 8.19748C107.474 7.57769 107.591 7.03472 107.825 6.56857C108.062 6.10243 108.396 5.74045 108.825 5.48264C109.255 5.22482 109.763 5.09592 110.349 5.09592C110.935 5.09592 111.443 5.22482 111.872 5.48264C112.302 5.74045 112.634 6.10243 112.868 6.56857C113.105 7.03472 113.224 7.57769 113.224 8.19748C113.224 8.81727 113.105 9.35894 112.868 9.82248C112.634 10.286 112.302 10.6467 111.872 10.9045C111.443 11.1623 110.935 11.2912 110.349 11.2912ZM110.357 10.1584C110.674 10.1584 110.94 10.0712 111.153 9.8967C111.367 9.71961 111.526 9.48264 111.63 9.18576C111.737 8.88889 111.79 8.55816 111.79 8.19357C111.79 7.82639 111.737 7.49435 111.63 7.19748C111.526 6.898 111.367 6.65972 111.153 6.48264C110.94 6.30555 110.674 6.21701 110.357 6.21701C110.031 6.21701 109.76 6.30555 109.544 6.48264C109.331 6.65972 109.17 6.898 109.064 7.19748C108.959 7.49435 108.907 7.82639 108.907 8.19357C108.907 8.55816 108.959 8.88889 109.064 9.18576C109.17 9.48264 109.331 9.71961 109.544 9.8967C109.76 10.0712 110.031 10.1584 110.357 10.1584ZM115.838 7.65842V11.174H114.424V5.17404H115.776V6.19357H115.846C115.984 5.85764 116.204 5.59071 116.506 5.39279C116.811 5.19488 117.187 5.09592 117.635 5.09592C118.049 5.09592 118.41 5.18446 118.717 5.36154C119.027 5.53862 119.266 5.79514 119.436 6.13107C119.608 6.46701 119.692 6.87456 119.69 7.35373V11.174H118.276V7.57248C118.276 7.17144 118.171 6.85764 117.963 6.63107C117.757 6.40451 117.472 6.29123 117.108 6.29123C116.86 6.29123 116.64 6.34592 116.447 6.45529C116.257 6.56206 116.108 6.71701 115.998 6.92014C115.891 7.12326 115.838 7.36935 115.838 7.65842Z" fill="#0D0D0D"/>
<path d="M63.3788 20.0156C60.6901 20.0156 58.5616 22.0321 58.5616 24.8328C58.5616 27.5215 60.6901 29.6501 63.3788 29.6501C66.0675 29.6501 68.1961 27.6335 68.1961 24.8328C68.1961 21.9201 66.0675 20.0156 63.3788 20.0156ZM63.3788 27.6335C61.9224 27.6335 60.6901 26.4012 60.6901 24.7208C60.6901 23.0404 61.9224 21.808 63.3788 21.808C64.8352 21.808 66.0675 22.9283 66.0675 24.7208C66.0675 26.4012 64.8352 27.6335 63.3788 27.6335ZM52.9601 20.0156C50.2714 20.0156 48.1429 22.0321 48.1429 24.8328C48.1429 27.5215 50.2714 29.6501 52.9601 29.6501C55.6488 29.6501 57.7774 27.6335 57.7774 24.8328C57.7774 21.9201 55.6488 20.0156 52.9601 20.0156ZM52.9601 27.6335C51.5037 27.6335 50.2714 26.4012 50.2714 24.7208C50.2714 23.0404 51.5037 21.808 52.9601 21.808C54.4165 21.808 55.6488 22.9283 55.6488 24.7208C55.6488 26.4012 54.4165 27.6335 52.9601 27.6335ZM40.5249 21.472V23.4885H45.3421C45.2301 24.6088 44.782 25.505 44.2219 26.0651C43.5497 26.7373 42.4294 27.5215 40.5249 27.5215C37.5001 27.5215 35.2595 25.1689 35.2595 22.1441C35.2595 19.1193 37.6121 16.7667 40.5249 16.7667C42.0933 16.7667 43.3256 17.4389 44.2219 18.2231L45.6782 16.7667C44.4459 15.6464 42.8775 14.7502 40.6369 14.7502C36.6039 14.7502 33.131 18.1111 33.131 22.1441C33.131 26.1772 36.6039 29.538 40.6369 29.538C42.8775 29.538 44.4459 28.8659 45.7903 27.4095C47.1346 26.0651 47.5827 24.1606 47.5827 22.7043C47.5827 22.2562 47.5827 21.808 47.4707 21.472H40.5249ZM91.3861 23.0404C90.9379 21.9201 89.8176 20.0156 87.353 20.0156C84.8884 20.0156 82.8718 21.9201 82.8718 24.8328C82.8718 27.5215 84.8884 29.6501 87.5771 29.6501C89.7056 29.6501 91.05 28.3057 91.4981 27.5215L89.9297 26.4012C89.3695 27.1854 88.6974 27.7456 87.5771 27.7456C86.4568 27.7456 85.7846 27.2975 85.2245 26.2892L91.6101 23.6005L91.3861 23.0404ZM84.8884 24.6088C84.8884 22.8163 86.3447 21.808 87.353 21.808C88.1372 21.808 88.9214 22.2562 89.1455 22.8163L84.8884 24.6088ZM79.623 29.202H81.7516V15.1983H79.623V29.202ZM76.2621 21.0238C75.702 20.4637 74.8058 19.9035 73.6855 19.9035C71.3329 19.9035 69.0923 22.0321 69.0923 24.7208C69.0923 27.4095 71.2208 29.426 73.6855 29.426C74.8058 29.426 75.702 28.8659 76.1501 28.3057H76.2621V28.9779C76.2621 30.7704 75.2539 31.7786 73.6855 31.7786C72.4532 31.7786 71.5569 30.8824 71.3329 30.0982L69.5404 30.8824C70.1005 32.1147 71.4449 33.6831 73.7975 33.6831C76.2621 33.6831 78.2787 32.2267 78.2787 28.7538V20.2396H76.2621V21.0238ZM73.7975 27.6335C72.3411 27.6335 71.1088 26.4012 71.1088 24.7208C71.1088 23.0404 72.3411 21.808 73.7975 21.808C75.2539 21.808 76.3742 23.0404 76.3742 24.7208C76.3742 26.4012 75.2539 27.6335 73.7975 27.6335ZM101.133 15.1983H96.0913V29.202H98.2198V23.9366H101.133C103.485 23.9366 105.726 22.2562 105.726 19.5675C105.726 16.8788 103.485 15.1983 101.133 15.1983ZM101.245 21.9201H98.2198V17.1028H101.245C102.813 17.1028 103.709 18.4472 103.709 19.4554C103.597 20.6877 102.701 21.9201 101.245 21.9201ZM114.128 19.9035C112.56 19.9035 110.991 20.5757 110.431 22.0321L112.335 22.8163C112.784 22.0321 113.456 21.808 114.24 21.808C115.36 21.808 116.369 22.4802 116.481 23.6005V23.7125C116.144 23.4885 115.248 23.1524 114.352 23.1524C112.335 23.1524 110.319 24.2727 110.319 26.2892C110.319 28.1937 111.999 29.426 113.792 29.426C115.248 29.426 115.92 28.7538 116.481 28.0817H116.593V29.202H118.609V23.8246C118.385 21.3599 116.481 19.9035 114.128 19.9035ZM113.904 27.6335C113.232 27.6335 112.223 27.2975 112.223 26.4012C112.223 25.2809 113.456 24.9449 114.464 24.9449C115.36 24.9449 115.808 25.1689 116.369 25.393C116.144 26.7373 115.024 27.6335 113.904 27.6335ZM125.667 20.2396L123.314 26.2892H123.202L120.738 20.2396H118.497L122.194 28.7538L120.065 33.4591H122.194L127.907 20.2396H125.667ZM106.846 29.202H108.975V15.1983H106.846V29.202Z" fill="#0D0D0D"/>
</svg>
